<?xml version="1.0" encoding="UTF-8" standalone="no"?>
<svg viewBox="0 0 50 50"
 xmlns="http://www.w3.org/2000/svg" xmlns:xlink="http://www.w3.org/1999/xlink"  version="1.2" baseProfile="tiny">
<title>Qt SVG Document</title>
<desc>Generated with Qt</desc>
<defs>
</defs>
<g fill="none" stroke="black" stroke-width="1" fill-rule="evenodd" stroke-linecap="square" stroke-linejoin="bevel" >

<g fill="none" stroke="none" transform="matrix(7.55905,0,0,7.55904,61.6887,-2146.88)"
font-family="Noto Sans" font-size="13" font-weight="400" font-style="normal" 
>
<rect x="-8.16091" y="284.015" width="6.61458" height="6.6146"/>
</g>

<g fill="none" stroke="none" transform="matrix(7.55905,0,0,7.55904,61.6887,-2146.88)"
font-family="Noto Sans" font-size="13" font-weight="400" font-style="normal" 
>
<rect x="-8.16091" y="284.015" width="6.61458" height="6.6146"/>
</g>

<g fill="#ffffff" fill-opacity="1" stroke="none" transform="matrix(7.55905,0,0,7.55904,61.6887,-2146.88)"
font-family="Noto Sans" font-size="13" font-weight="400" font-style="normal" 
opacity="0.912664" >
<path vector-effect="none" fill-rule="evenodd" d="M-7.63173,285.128 C-7.63173,284.806 -7.37053,284.544 -7.04832,284.544 L-2.6589,284.544 C-2.33669,284.544 -2.07549,284.806 -2.07549,285.128 L-2.07549,289.517 C-2.07549,289.84 -2.33669,290.101 -2.6589,290.101 L-7.04832,290.101 C-7.37053,290.101 -7.63173,289.84 -7.63173,289.517 L-7.63173,285.128"/>
</g>

<g fill="#b7685a" fill-opacity="1" stroke="none" transform="matrix(7.55905,0,0,7.55904,61.6887,-2146.88)"
font-family="Noto Sans" font-size="13" font-weight="400" font-style="normal" 
>
<path vector-effect="none" fill-rule="evenodd" d="M-7.36715,285.337 C-7.36715,285.045 -7.13083,284.809 -6.83931,284.809 L-2.86791,284.809 C-2.57639,284.809 -2.34007,285.045 -2.34007,285.337 L-2.34007,289.308 C-2.34007,289.6 -2.57639,289.836 -2.86791,289.836 L-6.83931,289.836 C-7.13083,289.836 -7.36715,289.6 -7.36715,289.308 L-7.36715,285.337"/>
</g>

<g fill="#ffffff" fill-opacity="1" stroke="none" transform="matrix(7.55905,0,0,7.55904,61.6887,-2146.88)"
font-family="Noto Sans" font-size="12" font-weight="400" font-style="normal" 
opacity="0.91703" >
<path vector-effect="none" fill-rule="nonzero" d="M-6.0463,285.931 C-6.05303,285.931 -6.05976,285.931 -6.06646,285.932 C-6.14293,285.94 -6.20778,285.992 -6.23289,286.064 C-6.25801,286.137 -6.23887,286.218 -6.18376,286.271 L-5.13318,287.322 L-6.18376,288.373 C-6.23801,288.422 -6.26088,288.497 -6.24326,288.568 C-6.22564,288.639 -6.1704,288.694 -6.09951,288.712 C-6.02861,288.73 -5.95356,288.708 -5.90419,288.654 L-4.85361,287.602 L-3.80251,288.654 C-3.75348,288.709 -3.67775,288.733 -3.60601,288.715 C-3.53427,288.697 -3.47842,288.641 -3.46107,288.569 C-3.44373,288.497 -3.46777,288.422 -3.52346,288.373 L-4.57404,287.322 L-3.52346,286.271 C-3.46587,286.214 -3.44869,286.128 -3.48007,286.053 C-3.51145,285.979 -3.58508,285.93 -3.66609,285.932 C-3.7177,285.933 -3.76664,285.955 -3.80251,285.992 L-4.85361,287.043 L-5.90419,285.992 C-5.94128,285.953 -5.99256,285.931 -6.0463,285.931 L-6.0463,285.931"/>
</g>

<g fill="none" stroke="#000000" stroke-opacity="1" stroke-width="1" stroke-linecap="square" stroke-linejoin="bevel" transform="matrix(1,0,0,1,0,0)"
font-family="Noto Sans" font-size="13" font-weight="400" font-style="normal" 
>
</g>
</g>
</svg>
