<?xml version="1.0" encoding="UTF-8" standalone="no"?>
<svg viewBox="0 0 50 50"
 xmlns="http://www.w3.org/2000/svg" xmlns:xlink="http://www.w3.org/1999/xlink"  version="1.2" baseProfile="tiny">
<title>Qt SVG Document</title>
<desc>Generated with Qt</desc>
<defs>
<linearGradient gradientUnits="userSpaceOnUse" x1="-15.1625" y1="289.508" x2="-14.8979" y2="289.508" id="gradient1">
    <stop offset="0" stop-color="#ffffff" stop-opacity="0.45098" />
</linearGradient>
<linearGradient gradientUnits="userSpaceOnUse" x1="-10.6646" y1="289.508" x2="-10.4" y2="289.508" id="gradient2">
    <stop offset="0" stop-color="#ffffff" stop-opacity="0.45098" />
</linearGradient>
<linearGradient gradientUnits="userSpaceOnUse" x1="287.127" y1="12.7813" x2="287.391" y2="12.7813" id="gradient3">
    <stop offset="0" stop-color="#ffffff" stop-opacity="0.45098" />
</linearGradient>
<linearGradient gradientUnits="userSpaceOnUse" x1="291.624" y1="12.7813" x2="291.889" y2="12.7813" id="gradient4">
    <stop offset="0" stop-color="#ffffff" stop-opacity="0.45098" />
</linearGradient>
<linearGradient gradientUnits="userSpaceOnUse" x1="-14.8979" y1="291.492" x2="-14.6333" y2="291.492" id="gradient5">
    <stop offset="0" stop-color="#ffffff" stop-opacity="0.45098" />
</linearGradient>
<linearGradient gradientUnits="userSpaceOnUse" x1="-15.1625" y1="291.228" x2="-14.8979" y2="291.228" id="gradient6">
    <stop offset="0" stop-color="#ffffff" stop-opacity="0.45098" />
</linearGradient>
<linearGradient gradientUnits="userSpaceOnUse" x1="-14.6333" y1="291.757" x2="-14.3688" y2="291.757" id="gradient7">
    <stop offset="0" stop-color="#ffffff" stop-opacity="0.45098" />
</linearGradient>
<linearGradient gradientUnits="userSpaceOnUse" x1="-14.8979" y1="291.492" x2="-14.6333" y2="291.492" id="gradient8">
    <stop offset="0" stop-color="#ffffff" stop-opacity="0.45098" />
</linearGradient>
<linearGradient gradientUnits="userSpaceOnUse" x1="-15.1625" y1="291.228" x2="-14.8979" y2="291.228" id="gradient9">
    <stop offset="0" stop-color="#ffffff" stop-opacity="0.45098" />
</linearGradient>
<linearGradient gradientUnits="userSpaceOnUse" x1="-14.6333" y1="291.757" x2="-14.3688" y2="291.757" id="gradient10">
    <stop offset="0" stop-color="#ffffff" stop-opacity="0.45098" />
</linearGradient>
<linearGradient gradientUnits="userSpaceOnUse" x1="-14.8979" y1="291.492" x2="-14.6333" y2="291.492" id="gradient11">
    <stop offset="0" stop-color="#ffffff" stop-opacity="0.45098" />
</linearGradient>
<linearGradient gradientUnits="userSpaceOnUse" x1="-15.1625" y1="291.228" x2="-14.8979" y2="291.228" id="gradient12">
    <stop offset="0" stop-color="#ffffff" stop-opacity="0.45098" />
</linearGradient>
<linearGradient gradientUnits="userSpaceOnUse" x1="-14.6333" y1="291.757" x2="-14.3688" y2="291.757" id="gradient13">
    <stop offset="0" stop-color="#ffffff" stop-opacity="0.45098" />
</linearGradient>
<linearGradient gradientUnits="userSpaceOnUse" x1="-14.8979" y1="291.492" x2="-14.6333" y2="291.492" id="gradient14">
    <stop offset="0" stop-color="#ffffff" stop-opacity="0.45098" />
</linearGradient>
<linearGradient gradientUnits="userSpaceOnUse" x1="-15.1625" y1="291.228" x2="-14.8979" y2="291.228" id="gradient15">
    <stop offset="0" stop-color="#ffffff" stop-opacity="0.45098" />
</linearGradient>
<linearGradient gradientUnits="userSpaceOnUse" x1="-14.6333" y1="291.757" x2="-14.3688" y2="291.757" id="gradient16">
    <stop offset="0" stop-color="#ffffff" stop-opacity="0.45098" />
</linearGradient>
</defs>
<g fill="none" stroke="black" stroke-width="1" fill-rule="evenodd" stroke-linecap="square" stroke-linejoin="bevel" >

<g fill="none" stroke="none" transform="matrix(7.55905,0,0,7.55904,6.92135,-2167.25)"
font-family="Noto Sans" font-size="13" font-weight="400" font-style="normal" 
>
<rect x="-0.915637" y="286.71" width="6.61458" height="6.6146"/>
</g>

<g fill="url(#gradient1)" stroke="none" transform="matrix(7.55905,0,0,7.55904,6.92135,-2167.25)"
font-family="Noto Sans" font-size="13" font-weight="400" font-style="normal" 
>
<rect x="-0.38647" y="288.033" width="0.264584" height="3.96874"/>
</g>

<g fill="url(#gradient2)" stroke="none" transform="matrix(7.55905,0,0,7.55904,6.92135,-2167.25)"
font-family="Noto Sans" font-size="13" font-weight="400" font-style="normal" 
>
<rect x="4.9052" y="288.033" width="0.264584" height="3.96875"/>
</g>

<g fill="url(#gradient3)" stroke="none" transform="matrix(0,7.55904,-7.55905,0,6.92135,-2167.25)"
font-family="Noto Sans" font-size="13" font-weight="400" font-style="normal" 
>
<rect x="287.239" y="-4.37604" width="0.264606" height="3.96876"/>
</g>

<g fill="url(#gradient4)" stroke="none" transform="matrix(0,7.55904,-7.55905,0,6.92135,-2167.25)"
font-family="Noto Sans" font-size="13" font-weight="400" font-style="normal" 
>
<rect x="292.53" y="-4.37605" width="0.264577" height="3.96877"/>
</g>

<g fill="url(#gradient5)" stroke="none" transform="matrix(7.55905,0,0,7.55904,118.614,-2160.4)"
font-family="Noto Sans" font-size="13" font-weight="400" font-style="normal" 
>
<rect x="-14.8979" y="291.36" width="0.264584" height="0.264552"/>
</g>

<g fill="url(#gradient6)" stroke="none" transform="matrix(7.55905,0,0,7.55904,118.614,-2160.4)"
font-family="Noto Sans" font-size="13" font-weight="400" font-style="normal" 
>
<rect x="-15.1625" y="291.095" width="0.264584" height="0.264554"/>
</g>

<g fill="url(#gradient7)" stroke="none" transform="matrix(7.55905,0,0,7.55904,118.614,-2160.4)"
font-family="Noto Sans" font-size="13" font-weight="400" font-style="normal" 
>
<rect x="-14.6333" y="291.624" width="0.264584" height="0.264577"/>
</g>

<g fill="url(#gradient8)" stroke="none" transform="matrix(-7.55905,0,0,7.55904,-68.6143,-2160.4)"
font-family="Noto Sans" font-size="13" font-weight="400" font-style="normal" 
>
<rect x="-14.8979" y="291.36" width="0.264584" height="0.264552"/>
</g>

<g fill="url(#gradient9)" stroke="none" transform="matrix(-7.55905,0,0,7.55904,-68.6143,-2160.4)"
font-family="Noto Sans" font-size="13" font-weight="400" font-style="normal" 
>
<rect x="-15.1625" y="291.095" width="0.264584" height="0.264554"/>
</g>

<g fill="url(#gradient10)" stroke="none" transform="matrix(-7.55905,0,0,7.55904,-68.6143,-2160.4)"
font-family="Noto Sans" font-size="13" font-weight="400" font-style="normal" 
>
<rect x="-14.6333" y="291.624" width="0.264584" height="0.264577"/>
</g>

<g fill="url(#gradient11)" stroke="none" transform="matrix(-7.55905,0,0,-7.55904,6.92135,-2167.25)"
font-family="Noto Sans" font-size="13" font-weight="400" font-style="normal" 
>
<rect x="-4.9052" y="-287.768" width="0.264584" height="0.264552"/>
</g>

<g fill="url(#gradient12)" stroke="none" transform="matrix(-7.55905,0,0,-7.55904,6.92135,-2167.25)"
font-family="Noto Sans" font-size="13" font-weight="400" font-style="normal" 
>
<rect x="-5.16978" y="-288.033" width="0.264584" height="0.264554"/>
</g>

<g fill="url(#gradient13)" stroke="none" transform="matrix(-7.55905,0,0,-7.55904,6.92135,-2167.25)"
font-family="Noto Sans" font-size="13" font-weight="400" font-style="normal" 
>
<rect x="-4.64061" y="-287.503" width="0.264584" height="0.264577"/>
</g>

<g fill="url(#gradient14)" stroke="none" transform="matrix(7.55905,0,0,-7.55904,118.614,2210.4)"
font-family="Noto Sans" font-size="13" font-weight="400" font-style="normal" 
>
<rect x="-14.8979" y="291.36" width="0.264584" height="0.264552"/>
</g>

<g fill="url(#gradient15)" stroke="none" transform="matrix(7.55905,0,0,-7.55904,118.614,2210.4)"
font-family="Noto Sans" font-size="13" font-weight="400" font-style="normal" 
>
<rect x="-15.1625" y="291.095" width="0.264584" height="0.264554"/>
</g>

<g fill="url(#gradient16)" stroke="none" transform="matrix(7.55905,0,0,-7.55904,118.614,2210.4)"
font-family="Noto Sans" font-size="13" font-weight="400" font-style="normal" 
>
<rect x="-14.6333" y="291.624" width="0.264584" height="0.264577"/>
</g>

<g fill="none" stroke="none" transform="matrix(7.55905,0,0,7.55904,6.92135,-2167.25)"
font-family="Noto Sans" font-size="13" font-weight="400" font-style="normal" 
>
<rect x="-0.915637" y="286.71" width="6.61458" height="6.6146"/>
</g>

<g fill="#ffffff" fill-opacity="1" stroke="none" transform="matrix(7.55905,0,0,7.55904,6.92135,-2167.25)"
font-family="Noto Sans" font-size="13" font-weight="400" font-style="normal" 
opacity="0.764706" >
<rect x="1.20103" y="291.208" width="1.5875" height="0.264593"/>
</g>

<g fill="#ffffff" fill-opacity="1" stroke="none" transform="matrix(7.55905,0,0,7.55904,6.92135,-2167.25)"
font-family="Noto Sans" font-size="13" font-weight="400" font-style="normal" 
opacity="0.764706" >
<rect x="2.25937" y="288.562" width="1.32292" height="0.264593"/>
</g>

<g fill="#ffffff" fill-opacity="1" stroke="none" transform="matrix(0,7.55904,-7.55905,0,6.92135,-2167.25)"
font-family="Noto Sans" font-size="13" font-weight="400" font-style="normal" 
opacity="0.764706" >
<rect x="289.62" y="-3.05313" width="1.5875" height="0.264593"/>
</g>

<g fill="#ffffff" fill-opacity="1" stroke="none" transform="matrix(0,7.55904,-7.55905,0,6.92135,-2167.25)"
font-family="Noto Sans" font-size="13" font-weight="400" font-style="normal" 
opacity="0.764706" >
<rect x="289.62" y="-1.20103" width="1.58747" height="0.264593"/>
</g>

<g fill="#ffffff" fill-opacity="1" stroke="none" transform="matrix(0,7.55904,-7.55905,0,6.92135,-2167.25)"
font-family="Noto Sans" font-size="13" font-weight="400" font-style="normal" 
opacity="0.219608" >
<rect x="291.208" y="-1.20103" width="0.264556" height="0.264593"/>
</g>

<g fill="#ffffff" fill-opacity="1" stroke="none" transform="matrix(0,7.55904,-7.55905,0,6.92135,-2167.25)"
font-family="Noto Sans" font-size="13" font-weight="400" font-style="normal" 
opacity="0.219608" >
<rect x="291.208" y="-3.05312" width="0.264556" height="0.264593"/>
</g>

<g fill="#ffffff" fill-opacity="1" stroke="none" transform="matrix(0,7.55904,-7.55905,0,6.92135,-2167.25)"
font-family="Noto Sans" font-size="13" font-weight="400" font-style="normal" 
opacity="0.219608" >
<rect x="288.562" y="-3.84687" width="0.264556" height="0.264593"/>
</g>

<g fill="#ffffff" fill-opacity="1" stroke="none" transform="matrix(0,7.55904,-7.55905,0,6.92135,-2167.25)"
font-family="Noto Sans" font-size="13" font-weight="400" font-style="normal" 
opacity="0.219608" >
<rect x="289.355" y="-1.20103" width="0.264556" height="0.264593"/>
</g>

<g fill="#ffffff" fill-opacity="1" stroke="none" transform="matrix(-7.55905,0,0,-7.55904,6.92135,-2167.25)"
font-family="Noto Sans" font-size="13" font-weight="400" font-style="normal" 
opacity="0.218798" >
<rect x="-4.9052" y="-287.503" width="0.264584" height="0.264552"/>
</g>

<g fill="#ffffff" fill-opacity="1" stroke="none" transform="matrix(-7.55905,0,0,-7.55904,6.92135,-2167.25)"
font-family="Noto Sans" font-size="13" font-weight="400" font-style="normal" 
opacity="0.218798" >
<rect x="-5.16979" y="-287.768" width="0.264584" height="0.264552"/>
</g>

<g fill="#ffffff" fill-opacity="1" stroke="none" transform="matrix(-7.55905,0,0,-7.55904,6.92135,-2167.25)"
font-family="Noto Sans" font-size="13" font-weight="400" font-style="normal" 
opacity="0.218798" >
<rect x="-5.16979" y="-292.53" width="0.264584" height="0.264552"/>
</g>

<g fill="#ffffff" fill-opacity="1" stroke="none" transform="matrix(-7.55905,0,0,-7.55904,6.92135,-2167.25)"
font-family="Noto Sans" font-size="13" font-weight="400" font-style="normal" 
opacity="0.218798" >
<rect x="-4.9052" y="-292.795" width="0.264584" height="0.264552"/>
</g>

<g fill="#ffffff" fill-opacity="1" stroke="none" transform="matrix(-7.55905,0,0,-7.55904,6.92135,-2167.25)"
font-family="Noto Sans" font-size="13" font-weight="400" font-style="normal" 
opacity="0.218798" >
<rect x="-0.142702" y="-292.795" width="0.264584" height="0.264552"/>
</g>

<g fill="#ffffff" fill-opacity="1" stroke="none" transform="matrix(-7.55905,0,0,-7.55904,6.92135,-2167.25)"
font-family="Noto Sans" font-size="13" font-weight="400" font-style="normal" 
opacity="0.218798" >
<rect x="0.121881" y="-292.53" width="0.264584" height="0.264552"/>
</g>

<g fill="#ffffff" fill-opacity="1" stroke="none" transform="matrix(-7.55905,0,0,-7.55904,6.92135,-2167.25)"
font-family="Noto Sans" font-size="13" font-weight="400" font-style="normal" 
opacity="0.218798" >
<rect x="0.121882" y="-287.768" width="0.264584" height="0.264552"/>
</g>

<g fill="#ffffff" fill-opacity="1" stroke="none" transform="matrix(-7.55905,0,0,-7.55904,6.92135,-2167.25)"
font-family="Noto Sans" font-size="13" font-weight="400" font-style="normal" 
opacity="0.218798" >
<rect x="-0.142701" y="-287.503" width="0.264584" height="0.264552"/>
</g>

<g fill="#ffffff" fill-opacity="1" stroke="none" transform="matrix(0,7.55904,-7.55905,0,6.92135,-2167.25)"
font-family="Noto Sans" font-size="13" font-weight="400" font-style="normal" 
opacity="0.764706" >
<rect x="288.826" y="-3.84687" width="1.3229" height="0.264593"/>
</g>

<g fill="#ffffff" fill-opacity="1" stroke="none" transform="matrix(7.55905,0,0,7.55904,6.92135,-2167.25)"
font-family="Noto Sans" font-size="13" font-weight="400" font-style="normal" 
opacity="0.764706" >
<rect x="1.20103" y="289.355" width="1.5875" height="0.264593"/>
</g>

<g fill="#ffffff" fill-opacity="1" stroke="none" transform="matrix(0,7.55904,-7.55905,0,6.92135,-2167.25)"
font-family="Noto Sans" font-size="13" font-weight="400" font-style="normal" 
opacity="0.219608" >
<rect x="289.355" y="-3.05312" width="0.264556" height="0.264593"/>
</g>

<g fill="#ffffff" fill-opacity="1" stroke="none" transform="matrix(7.55905,0,0,7.55904,6.92135,-2167.25)"
font-family="Noto Sans" font-size="13" font-weight="400" font-style="normal" 
opacity="0.764706" >
<rect x="3.05312" y="290.149" width="0.529167" height="0.264593"/>
</g>

<g fill="#ffffff" fill-opacity="1" stroke="none" transform="matrix(0,7.55904,-7.55905,0,6.92135,-2167.25)"
font-family="Noto Sans" font-size="13" font-weight="400" font-style="normal" 
opacity="0.764706" >
<rect x="288.826" y="-2.25937" width="0.529162" height="0.264593"/>
</g>

<g fill="#ffffff" fill-opacity="1" stroke="none" transform="matrix(0,7.55904,-7.55905,0,6.92135,-2167.25)"
font-family="Noto Sans" font-size="13" font-weight="400" font-style="normal" 
opacity="0.219608" >
<rect x="288.562" y="-2.25938" width="0.264556" height="0.264593"/>
</g>

<g fill="#ffffff" fill-opacity="1" stroke="none" transform="matrix(0,7.55904,-7.55905,0,6.92135,-2167.25)"
font-family="Noto Sans" font-size="13" font-weight="400" font-style="normal" 
opacity="0.219608" >
<rect x="290.149" y="-3.84687" width="0.264556" height="0.264593"/>
</g>

<g fill="none" stroke="#000000" stroke-opacity="1" stroke-width="1" stroke-linecap="square" stroke-linejoin="bevel" transform="matrix(1,0,0,1,0,0)"
font-family="Noto Sans" font-size="13" font-weight="400" font-style="normal" 
>
</g>
</g>
</svg>
