<?xml version="1.0" encoding="UTF-8" standalone="no"?>
<svg viewBox="0 0 50 50"
 xmlns="http://www.w3.org/2000/svg" xmlns:xlink="http://www.w3.org/1999/xlink"  version="1.2" baseProfile="tiny">
<title>Qt SVG Document</title>
<desc>Generated with Qt</desc>
<defs>
<linearGradient gradientUnits="userSpaceOnUse" x1="-8.05939" y1="289.752" x2="-7.7948" y2="289.752" id="gradient1">
    <stop offset="0" stop-color="#ffffff" stop-opacity="0.556863" />
</linearGradient>
<linearGradient gradientUnits="userSpaceOnUse" x1="-2.76772" y1="289.752" x2="-2.50314" y2="289.752" id="gradient2">
    <stop offset="0" stop-color="#ffffff" stop-opacity="0.556863" />
</linearGradient>
<linearGradient gradientUnits="userSpaceOnUse" x1="286.974" y1="5.28126" x2="287.239" y2="5.28126" id="gradient3">
    <stop offset="0" stop-color="#ffffff" stop-opacity="0.556863" />
</linearGradient>
<linearGradient gradientUnits="userSpaceOnUse" x1="292.266" y1="5.28126" x2="292.53" y2="5.28126" id="gradient4">
    <stop offset="0" stop-color="#ffffff" stop-opacity="0.556863" />
</linearGradient>
<linearGradient gradientUnits="userSpaceOnUse" x1="-14.8979" y1="291.492" x2="-14.6333" y2="291.492" id="gradient5">
    <stop offset="0" stop-color="#ffffff" stop-opacity="0.556863" />
</linearGradient>
<linearGradient gradientUnits="userSpaceOnUse" x1="-15.1625" y1="291.228" x2="-14.8979" y2="291.228" id="gradient6">
    <stop offset="0" stop-color="#ffffff" stop-opacity="0.556863" />
</linearGradient>
<linearGradient gradientUnits="userSpaceOnUse" x1="-14.6333" y1="291.757" x2="-14.3688" y2="291.757" id="gradient7">
    <stop offset="0" stop-color="#ffffff" stop-opacity="0.556863" />
</linearGradient>
<linearGradient gradientUnits="userSpaceOnUse" x1="-14.8979" y1="291.492" x2="-14.6333" y2="291.492" id="gradient8">
    <stop offset="0" stop-color="#ffffff" stop-opacity="0.556863" />
</linearGradient>
<linearGradient gradientUnits="userSpaceOnUse" x1="-15.1625" y1="291.228" x2="-14.8979" y2="291.228" id="gradient9">
    <stop offset="0" stop-color="#ffffff" stop-opacity="0.556863" />
</linearGradient>
<linearGradient gradientUnits="userSpaceOnUse" x1="-14.6333" y1="291.757" x2="-14.3688" y2="291.757" id="gradient10">
    <stop offset="0" stop-color="#ffffff" stop-opacity="0.556863" />
</linearGradient>
<linearGradient gradientUnits="userSpaceOnUse" x1="2.76772" y1="-287.371" x2="3.03231" y2="-287.371" id="gradient11">
    <stop offset="0" stop-color="#ffffff" stop-opacity="0.556863" />
</linearGradient>
<linearGradient gradientUnits="userSpaceOnUse" x1="2.50314" y1="-287.636" x2="2.76772" y2="-287.636" id="gradient12">
    <stop offset="0" stop-color="#ffffff" stop-opacity="0.556863" />
</linearGradient>
<linearGradient gradientUnits="userSpaceOnUse" x1="3.03231" y1="-287.107" x2="3.29689" y2="-287.107" id="gradient13">
    <stop offset="0" stop-color="#ffffff" stop-opacity="0.556863" />
</linearGradient>
<linearGradient gradientUnits="userSpaceOnUse" x1="-14.8979" y1="291.492" x2="-14.6333" y2="291.492" id="gradient14">
    <stop offset="0" stop-color="#ffffff" stop-opacity="0.556863" />
</linearGradient>
<linearGradient gradientUnits="userSpaceOnUse" x1="-15.1625" y1="291.228" x2="-14.8979" y2="291.228" id="gradient15">
    <stop offset="0" stop-color="#ffffff" stop-opacity="0.556863" />
</linearGradient>
<linearGradient gradientUnits="userSpaceOnUse" x1="-14.6333" y1="291.757" x2="-14.3688" y2="291.757" id="gradient16">
    <stop offset="0" stop-color="#ffffff" stop-opacity="0.819608" />
</linearGradient>
</defs>
<g fill="none" stroke="black" stroke-width="1" fill-rule="evenodd" stroke-linecap="square" stroke-linejoin="bevel" >

<g fill="none" stroke="none" transform="matrix(7.55905,0,0,7.55904,64.9214,-2165.25)"
font-family="Noto Sans" font-size="13" font-weight="400" font-style="normal" 
>
<rect x="-8.58856" y="286.445" width="6.61458" height="6.6146"/>
</g>

<g fill="url(#gradient1)" stroke="none" transform="matrix(7.55905,0,0,7.55904,64.9214,-2165.25)"
font-family="Noto Sans" font-size="13" font-weight="400" font-style="normal" 
>
<rect x="-8.05939" y="287.768" width="0.264584" height="3.96874"/>
</g>

<g fill="url(#gradient2)" stroke="none" transform="matrix(7.55905,0,0,7.55904,64.9214,-2165.25)"
font-family="Noto Sans" font-size="13" font-weight="400" font-style="normal" 
>
<rect x="-2.76772" y="287.768" width="0.264584" height="3.96875"/>
</g>

<g fill="url(#gradient3)" stroke="none" transform="matrix(0,7.55904,-7.55905,0,64.9214,-2165.25)"
font-family="Noto Sans" font-size="13" font-weight="400" font-style="normal" 
>
<rect x="286.974" y="3.29688" width="0.264606" height="3.96876"/>
</g>

<g fill="url(#gradient4)" stroke="none" transform="matrix(0,7.55904,-7.55905,0,64.9214,-2165.25)"
font-family="Noto Sans" font-size="13" font-weight="400" font-style="normal" 
>
<rect x="292.266" y="3.29687" width="0.264577" height="3.96877"/>
</g>

<g fill="url(#gradient5)" stroke="none" transform="matrix(7.55905,0,0,7.55904,118.614,-2160.4)"
font-family="Noto Sans" font-size="13" font-weight="400" font-style="normal" 
>
<rect x="-14.8979" y="291.36" width="0.264584" height="0.264552"/>
</g>

<g fill="url(#gradient6)" stroke="none" transform="matrix(7.55905,0,0,7.55904,118.614,-2160.4)"
font-family="Noto Sans" font-size="13" font-weight="400" font-style="normal" 
>
<rect x="-15.1625" y="291.095" width="0.264584" height="0.264554"/>
</g>

<g fill="url(#gradient7)" stroke="none" transform="matrix(7.55905,0,0,7.55904,118.614,-2160.4)"
font-family="Noto Sans" font-size="13" font-weight="400" font-style="normal" 
>
<rect x="-14.6333" y="291.624" width="0.264584" height="0.264577"/>
</g>

<g fill="url(#gradient8)" stroke="none" transform="matrix(-7.55905,0,0,7.55904,-68.6143,-2160.4)"
font-family="Noto Sans" font-size="13" font-weight="400" font-style="normal" 
>
<rect x="-14.8979" y="291.36" width="0.264584" height="0.264552"/>
</g>

<g fill="url(#gradient9)" stroke="none" transform="matrix(-7.55905,0,0,7.55904,-68.6143,-2160.4)"
font-family="Noto Sans" font-size="13" font-weight="400" font-style="normal" 
>
<rect x="-15.1625" y="291.095" width="0.264584" height="0.264554"/>
</g>

<g fill="url(#gradient10)" stroke="none" transform="matrix(-7.55905,0,0,7.55904,-68.6143,-2160.4)"
font-family="Noto Sans" font-size="13" font-weight="400" font-style="normal" 
>
<rect x="-14.6333" y="291.624" width="0.264584" height="0.264577"/>
</g>

<g fill="url(#gradient11)" stroke="none" transform="matrix(-7.55905,0,0,-7.55904,64.9214,-2165.25)"
font-family="Noto Sans" font-size="13" font-weight="400" font-style="normal" 
>
<rect x="2.76772" y="-287.503" width="0.264584" height="0.264552"/>
</g>

<g fill="url(#gradient12)" stroke="none" transform="matrix(-7.55905,0,0,-7.55904,64.9214,-2165.25)"
font-family="Noto Sans" font-size="13" font-weight="400" font-style="normal" 
>
<rect x="2.50314" y="-287.768" width="0.264584" height="0.264554"/>
</g>

<g fill="url(#gradient13)" stroke="none" transform="matrix(-7.55905,0,0,-7.55904,64.9214,-2165.25)"
font-family="Noto Sans" font-size="13" font-weight="400" font-style="normal" 
>
<rect x="3.03231" y="-287.239" width="0.264584" height="0.264577"/>
</g>

<g fill="url(#gradient14)" stroke="none" transform="matrix(7.55905,0,0,-7.55904,118.614,2210.4)"
font-family="Noto Sans" font-size="13" font-weight="400" font-style="normal" 
>
<rect x="-14.8979" y="291.36" width="0.264584" height="0.264552"/>
</g>

<g fill="url(#gradient15)" stroke="none" transform="matrix(7.55905,0,0,-7.55904,118.614,2210.4)"
font-family="Noto Sans" font-size="13" font-weight="400" font-style="normal" 
>
<rect x="-15.1625" y="291.095" width="0.264584" height="0.264554"/>
</g>

<g fill="url(#gradient16)" stroke="none" transform="matrix(7.55905,0,0,-7.55904,118.614,2210.4)"
font-family="Noto Sans" font-size="13" font-weight="400" font-style="normal" 
>
<rect x="-14.6333" y="291.624" width="0.264584" height="0.264577"/>
</g>

<g fill="none" stroke="none" transform="matrix(7.55905,0,0,7.55904,64.9214,-2165.25)"
font-family="Noto Sans" font-size="13" font-weight="400" font-style="normal" 
>
<rect x="-8.58856" y="286.445" width="6.61458" height="6.6146"/>
</g>

<g fill="#ffffff" fill-opacity="1" stroke="none" transform="matrix(7.55905,0,0,7.55904,64.9214,-2165.25)"
font-family="Noto Sans" font-size="13" font-weight="400" font-style="normal" 
opacity="0.721569" >
<rect x="-6.47188" y="290.943" width="2.38125" height="0.264593"/>
</g>

<g fill="#ffffff" fill-opacity="1" stroke="none" transform="matrix(7.55905,0,0,7.55904,64.9214,-2165.25)"
font-family="Noto Sans" font-size="13" font-weight="400" font-style="normal" 
opacity="0.721569" >
<rect x="-6.47189" y="288.297" width="2.38125" height="0.264593"/>
</g>

<g fill="#ffffff" fill-opacity="1" stroke="none" transform="matrix(0,7.55904,-7.55905,0,64.9214,-2165.25)"
font-family="Noto Sans" font-size="13" font-weight="400" font-style="normal" 
opacity="0.721569" >
<rect x="288.562" y="3.82604" width="2.38122" height="0.264593"/>
</g>

<g fill="#ffffff" fill-opacity="1" stroke="none" transform="matrix(0,7.55904,-7.55905,0,64.9214,-2165.25)"
font-family="Noto Sans" font-size="13" font-weight="400" font-style="normal" 
opacity="0.721569" >
<rect x="288.562" y="6.47188" width="2.38122" height="0.264593"/>
</g>

<g fill="#ffffff" fill-opacity="1" stroke="none" transform="matrix(0,7.55904,-7.55905,0,64.9214,-2165.25)"
font-family="Noto Sans" font-size="13" font-weight="400" font-style="normal" 
opacity="0.219608" >
<rect x="290.943" y="6.47188" width="0.264556" height="0.264593"/>
</g>

<g fill="#ffffff" fill-opacity="1" stroke="none" transform="matrix(0,7.55904,-7.55905,0,64.9214,-2165.25)"
font-family="Noto Sans" font-size="13" font-weight="400" font-style="normal" 
opacity="0.219608" >
<rect x="290.943" y="3.82605" width="0.264556" height="0.264593"/>
</g>

<g fill="#ffffff" fill-opacity="1" stroke="none" transform="matrix(0,7.55904,-7.55905,0,64.9214,-2165.25)"
font-family="Noto Sans" font-size="13" font-weight="400" font-style="normal" 
opacity="0.219608" >
<rect x="288.297" y="3.82605" width="0.264556" height="0.264593"/>
</g>

<g fill="#ffffff" fill-opacity="1" stroke="none" transform="matrix(0,7.55904,-7.55905,0,64.9214,-2165.25)"
font-family="Noto Sans" font-size="13" font-weight="400" font-style="normal" 
opacity="0.219608" >
<rect x="288.297" y="6.47187" width="0.264556" height="0.264593"/>
</g>

<g fill="#ffffff" fill-opacity="1" stroke="none" transform="matrix(-7.55905,0,0,-7.55904,64.9214,-2165.25)"
font-family="Noto Sans" font-size="13" font-weight="400" font-style="normal" 
opacity="0.218798" >
<rect x="2.76772" y="-287.239" width="0.264584" height="0.264552"/>
</g>

<g fill="#ffffff" fill-opacity="1" stroke="none" transform="matrix(-7.55905,0,0,-7.55904,64.9214,-2165.25)"
font-family="Noto Sans" font-size="13" font-weight="400" font-style="normal" 
opacity="0.218798" >
<rect x="2.50313" y="-287.503" width="0.264584" height="0.264552"/>
</g>

<g fill="#ffffff" fill-opacity="1" stroke="none" transform="matrix(-7.55905,0,0,-7.55904,64.9214,-2165.25)"
font-family="Noto Sans" font-size="13" font-weight="400" font-style="normal" 
opacity="0.218798" >
<rect x="2.50313" y="-292.266" width="0.264584" height="0.264552"/>
</g>

<g fill="#ffffff" fill-opacity="1" stroke="none" transform="matrix(-7.55905,0,0,-7.55904,64.9214,-2165.25)"
font-family="Noto Sans" font-size="13" font-weight="400" font-style="normal" 
opacity="0.218798" >
<rect x="2.76772" y="-292.53" width="0.264584" height="0.264552"/>
</g>

<g fill="#ffffff" fill-opacity="1" stroke="none" transform="matrix(-7.55905,0,0,-7.55904,64.9214,-2165.25)"
font-family="Noto Sans" font-size="13" font-weight="400" font-style="normal" 
opacity="0.218798" >
<rect x="7.53022" y="-292.53" width="0.264584" height="0.264552"/>
</g>

<g fill="#ffffff" fill-opacity="1" stroke="none" transform="matrix(-7.55905,0,0,-7.55904,64.9214,-2165.25)"
font-family="Noto Sans" font-size="13" font-weight="400" font-style="normal" 
opacity="0.218798" >
<rect x="7.7948" y="-292.266" width="0.264584" height="0.264552"/>
</g>

<g fill="#ffffff" fill-opacity="1" stroke="none" transform="matrix(-7.55905,0,0,-7.55904,64.9214,-2165.25)"
font-family="Noto Sans" font-size="13" font-weight="400" font-style="normal" 
opacity="0.218798" >
<rect x="7.7948" y="-287.503" width="0.264584" height="0.264552"/>
</g>

<g fill="#ffffff" fill-opacity="1" stroke="none" transform="matrix(-7.55905,0,0,-7.55904,64.9214,-2165.25)"
font-family="Noto Sans" font-size="13" font-weight="400" font-style="normal" 
opacity="0.218798" >
<rect x="7.53022" y="-287.239" width="0.264584" height="0.264552"/>
</g>

<g fill="none" stroke="#000000" stroke-opacity="1" stroke-width="1" stroke-linecap="square" stroke-linejoin="bevel" transform="matrix(1,0,0,1,0,0)"
font-family="Noto Sans" font-size="13" font-weight="400" font-style="normal" 
>
</g>
</g>
</svg>
