<?xml version="1.0" encoding="UTF-8" standalone="no"?>
<svg viewBox="0 0 50 50"
 xmlns="http://www.w3.org/2000/svg" xmlns:xlink="http://www.w3.org/1999/xlink"  version="1.2" baseProfile="tiny">
<title>Qt SVG Document</title>
<desc>Generated with Qt</desc>
<defs>
<linearGradient gradientUnits="userSpaceOnUse" x1="-15.1625" y1="289.508" x2="-14.8979" y2="289.508" id="gradient1">
    <stop offset="0" stop-color="#ffffff" stop-opacity="0.552941" />
</linearGradient>
<linearGradient gradientUnits="userSpaceOnUse" x1="-10.6646" y1="289.508" x2="-10.4" y2="289.508" id="gradient2">
    <stop offset="0" stop-color="#ffffff" stop-opacity="0.552941" />
</linearGradient>
<linearGradient gradientUnits="userSpaceOnUse" x1="287.127" y1="12.7813" x2="287.391" y2="12.7813" id="gradient3">
    <stop offset="0" stop-color="#ffffff" stop-opacity="0.552941" />
</linearGradient>
<linearGradient gradientUnits="userSpaceOnUse" x1="291.624" y1="12.7813" x2="291.889" y2="12.7813" id="gradient4">
    <stop offset="0" stop-color="#ffffff" stop-opacity="0.552941" />
</linearGradient>
<linearGradient gradientUnits="userSpaceOnUse" x1="-14.8979" y1="291.492" x2="-14.6333" y2="291.492" id="gradient5">
    <stop offset="0" stop-color="#ffffff" stop-opacity="0.552941" />
</linearGradient>
<linearGradient gradientUnits="userSpaceOnUse" x1="-15.1625" y1="291.228" x2="-14.8979" y2="291.228" id="gradient6">
    <stop offset="0" stop-color="#ffffff" stop-opacity="0.552941" />
</linearGradient>
<linearGradient gradientUnits="userSpaceOnUse" x1="-14.6333" y1="291.757" x2="-14.3688" y2="291.757" id="gradient7">
    <stop offset="0" stop-color="#ffffff" stop-opacity="0.552941" />
</linearGradient>
<linearGradient gradientUnits="userSpaceOnUse" x1="-14.8979" y1="291.492" x2="-14.6333" y2="291.492" id="gradient8">
    <stop offset="0" stop-color="#ffffff" stop-opacity="0.552941" />
</linearGradient>
<linearGradient gradientUnits="userSpaceOnUse" x1="-15.1625" y1="291.228" x2="-14.8979" y2="291.228" id="gradient9">
    <stop offset="0" stop-color="#ffffff" stop-opacity="0.552941" />
</linearGradient>
<linearGradient gradientUnits="userSpaceOnUse" x1="-14.6333" y1="291.757" x2="-14.3688" y2="291.757" id="gradient10">
    <stop offset="0" stop-color="#ffffff" stop-opacity="0.552941" />
</linearGradient>
<linearGradient gradientUnits="userSpaceOnUse" x1="-14.8979" y1="291.492" x2="-14.6333" y2="291.492" id="gradient11">
    <stop offset="0" stop-color="#ffffff" stop-opacity="0.552941" />
</linearGradient>
<linearGradient gradientUnits="userSpaceOnUse" x1="-15.1625" y1="291.228" x2="-14.8979" y2="291.228" id="gradient12">
    <stop offset="0" stop-color="#ffffff" stop-opacity="0.552941" />
</linearGradient>
<linearGradient gradientUnits="userSpaceOnUse" x1="-14.6333" y1="291.757" x2="-14.3688" y2="291.757" id="gradient13">
    <stop offset="0" stop-color="#ffffff" stop-opacity="0.552941" />
</linearGradient>
<linearGradient gradientUnits="userSpaceOnUse" x1="-14.8979" y1="291.492" x2="-14.6333" y2="291.492" id="gradient14">
    <stop offset="0" stop-color="#ffffff" stop-opacity="0.552941" />
</linearGradient>
<linearGradient gradientUnits="userSpaceOnUse" x1="-15.1625" y1="291.228" x2="-14.8979" y2="291.228" id="gradient15">
    <stop offset="0" stop-color="#ffffff" stop-opacity="0.552941" />
</linearGradient>
<linearGradient gradientUnits="userSpaceOnUse" x1="-14.6333" y1="291.757" x2="-14.3688" y2="291.757" id="gradient16">
    <stop offset="0" stop-color="#ffffff" stop-opacity="0.552941" />
</linearGradient>
</defs>
<g fill="none" stroke="black" stroke-width="1" fill-rule="evenodd" stroke-linecap="square" stroke-linejoin="bevel" >

<g fill="none" stroke="none" transform="matrix(7.55905,0,0,7.55904,132.614,-2160.4)"
font-family="Noto Sans" font-size="13" font-weight="400" font-style="normal" 
>
<rect x="-17.5438" y="285.804" width="6.61458" height="6.6146"/>
</g>

<g fill="url(#gradient1)" stroke="none" transform="matrix(7.55905,0,0,7.55904,132.614,-2160.4)"
font-family="Noto Sans" font-size="13" font-weight="400" font-style="normal" 
>
<rect x="-17.0146" y="287.127" width="0.264584" height="3.96874"/>
</g>

<g fill="url(#gradient2)" stroke="none" transform="matrix(7.55905,0,0,7.55904,132.614,-2160.4)"
font-family="Noto Sans" font-size="13" font-weight="400" font-style="normal" 
>
<rect x="-11.7229" y="287.127" width="0.264584" height="3.96875"/>
</g>

<g fill="url(#gradient3)" stroke="none" transform="matrix(0,7.55904,-7.55905,0,132.614,-2160.4)"
font-family="Noto Sans" font-size="13" font-weight="400" font-style="normal" 
>
<rect x="286.333" y="12.2521" width="0.264606" height="3.96876"/>
</g>

<g fill="url(#gradient4)" stroke="none" transform="matrix(0,7.55904,-7.55905,0,132.614,-2160.4)"
font-family="Noto Sans" font-size="13" font-weight="400" font-style="normal" 
>
<rect x="291.624" y="12.2521" width="0.264577" height="3.96877"/>
</g>

<g fill="url(#gradient5)" stroke="none" transform="matrix(7.55905,0,0,7.55904,118.614,-2160.4)"
font-family="Noto Sans" font-size="13" font-weight="400" font-style="normal" 
>
<rect x="-14.8979" y="291.36" width="0.264584" height="0.264552"/>
</g>

<g fill="url(#gradient6)" stroke="none" transform="matrix(7.55905,0,0,7.55904,118.614,-2160.4)"
font-family="Noto Sans" font-size="13" font-weight="400" font-style="normal" 
>
<rect x="-15.1625" y="291.095" width="0.264584" height="0.264554"/>
</g>

<g fill="url(#gradient7)" stroke="none" transform="matrix(7.55905,0,0,7.55904,118.614,-2160.4)"
font-family="Noto Sans" font-size="13" font-weight="400" font-style="normal" 
>
<rect x="-14.6333" y="291.624" width="0.264584" height="0.264577"/>
</g>

<g fill="url(#gradient8)" stroke="none" transform="matrix(-7.55905,0,0,7.55904,-68.6143,-2160.4)"
font-family="Noto Sans" font-size="13" font-weight="400" font-style="normal" 
>
<rect x="-14.8979" y="291.36" width="0.264584" height="0.264552"/>
</g>

<g fill="url(#gradient9)" stroke="none" transform="matrix(-7.55905,0,0,7.55904,-68.6143,-2160.4)"
font-family="Noto Sans" font-size="13" font-weight="400" font-style="normal" 
>
<rect x="-15.1625" y="291.095" width="0.264584" height="0.264554"/>
</g>

<g fill="url(#gradient10)" stroke="none" transform="matrix(-7.55905,0,0,7.55904,-68.6143,-2160.4)"
font-family="Noto Sans" font-size="13" font-weight="400" font-style="normal" 
>
<rect x="-14.6333" y="291.624" width="0.264584" height="0.264577"/>
</g>

<g fill="url(#gradient11)" stroke="none" transform="matrix(-7.55905,0,0,-7.55904,132.614,-2160.4)"
font-family="Noto Sans" font-size="13" font-weight="400" font-style="normal" 
>
<rect x="11.7229" y="-286.862" width="0.264584" height="0.264552"/>
</g>

<g fill="url(#gradient12)" stroke="none" transform="matrix(-7.55905,0,0,-7.55904,132.614,-2160.4)"
font-family="Noto Sans" font-size="13" font-weight="400" font-style="normal" 
>
<rect x="11.4583" y="-287.127" width="0.264584" height="0.264554"/>
</g>

<g fill="url(#gradient13)" stroke="none" transform="matrix(-7.55905,0,0,-7.55904,132.614,-2160.4)"
font-family="Noto Sans" font-size="13" font-weight="400" font-style="normal" 
>
<rect x="11.9875" y="-286.597" width="0.264584" height="0.264577"/>
</g>

<g fill="url(#gradient14)" stroke="none" transform="matrix(7.55905,0,0,-7.55904,118.614,2210.4)"
font-family="Noto Sans" font-size="13" font-weight="400" font-style="normal" 
>
<rect x="-14.8979" y="291.36" width="0.264584" height="0.264552"/>
</g>

<g fill="url(#gradient15)" stroke="none" transform="matrix(7.55905,0,0,-7.55904,118.614,2210.4)"
font-family="Noto Sans" font-size="13" font-weight="400" font-style="normal" 
>
<rect x="-15.1625" y="291.095" width="0.264584" height="0.264554"/>
</g>

<g fill="url(#gradient16)" stroke="none" transform="matrix(7.55905,0,0,-7.55904,118.614,2210.4)"
font-family="Noto Sans" font-size="13" font-weight="400" font-style="normal" 
>
<rect x="-14.6333" y="291.624" width="0.264584" height="0.264577"/>
</g>

<g fill="none" stroke="none" transform="matrix(7.55905,0,0,7.55904,132.614,-2160.4)"
font-family="Noto Sans" font-size="13" font-weight="400" font-style="normal" 
>
<rect x="-17.5438" y="285.804" width="6.61458" height="6.6146"/>
</g>

<g fill="#ffffff" fill-opacity="1" stroke="none" transform="matrix(7.55905,0,0,7.55904,132.614,-2160.4)"
font-family="Noto Sans" font-size="13" font-weight="400" font-style="normal" 
opacity="0.721569" >
<rect x="-15.6917" y="290.302" width="2.91041" height="0.264593"/>
</g>

<g fill="#ffffff" fill-opacity="1" stroke="none" transform="matrix(-7.55905,0,0,-7.55904,132.614,-2160.4)"
font-family="Noto Sans" font-size="13" font-weight="400" font-style="normal" 
opacity="0.219008" >
<rect x="11.7229" y="-286.597" width="0.264584" height="0.264577"/>
</g>

<g fill="#ffffff" fill-opacity="1" stroke="none" transform="matrix(-7.55905,0,0,-7.55904,132.614,-2160.4)"
font-family="Noto Sans" font-size="13" font-weight="400" font-style="normal" 
opacity="0.219008" >
<rect x="11.4583" y="-286.862" width="0.264584" height="0.264577"/>
</g>

<g fill="#ffffff" fill-opacity="1" stroke="none" transform="matrix(-7.55905,0,0,-7.55904,132.614,-2160.4)"
font-family="Noto Sans" font-size="13" font-weight="400" font-style="normal" 
opacity="0.219008" >
<rect x="16.75" y="-286.862" width="0.264584" height="0.264577"/>
</g>

<g fill="#ffffff" fill-opacity="1" stroke="none" transform="matrix(-7.55905,0,0,-7.55904,132.614,-2160.4)"
font-family="Noto Sans" font-size="13" font-weight="400" font-style="normal" 
opacity="0.219008" >
<rect x="16.4854" y="-286.597" width="0.264584" height="0.264577"/>
</g>

<g fill="#ffffff" fill-opacity="1" stroke="none" transform="matrix(-7.55905,0,0,-7.55904,132.614,-2160.4)"
font-family="Noto Sans" font-size="13" font-weight="400" font-style="normal" 
opacity="0.219008" >
<rect x="16.75" y="-291.624" width="0.264584" height="0.264577"/>
</g>

<g fill="#ffffff" fill-opacity="1" stroke="none" transform="matrix(-7.55905,0,0,-7.55904,132.614,-2160.4)"
font-family="Noto Sans" font-size="13" font-weight="400" font-style="normal" 
opacity="0.219008" >
<rect x="16.4854" y="-291.889" width="0.264584" height="0.264577"/>
</g>

<g fill="#ffffff" fill-opacity="1" stroke="none" transform="matrix(-7.55905,0,0,-7.55904,132.614,-2160.4)"
font-family="Noto Sans" font-size="13" font-weight="400" font-style="normal" 
opacity="0.219008" >
<rect x="11.7229" y="-291.889" width="0.264584" height="0.264577"/>
</g>

<g fill="#ffffff" fill-opacity="1" stroke="none" transform="matrix(-7.55905,0,0,-7.55904,132.614,-2160.4)"
font-family="Noto Sans" font-size="13" font-weight="400" font-style="normal" 
opacity="0.219008" >
<rect x="11.4583" y="-291.624" width="0.264584" height="0.264577"/>
</g>

<g fill="none" stroke="#000000" stroke-opacity="1" stroke-width="1" stroke-linecap="square" stroke-linejoin="bevel" transform="matrix(1,0,0,1,0,0)"
font-family="Noto Sans" font-size="13" font-weight="400" font-style="normal" 
>
</g>
</g>
</svg>
